<?xml version="1.0" standalone="no"?>
<!DOCTYPE svg PUBLIC "-//W3C//DTD SVG 20010904//EN"
 "http://www.w3.org/TR/2001/REC-SVG-20010904/DTD/svg10.dtd">
<svg version="1.0" xmlns="http://www.w3.org/2000/svg"
 width="512.000000pt" height="512.000000pt" viewBox="0 0 512.000000 512.000000"
 preserveAspectRatio="xMidYMid meet">

<g transform="translate(0.000000,512.000000) scale(0.100000,-0.100000)"
fill="#000000" stroke="none">
<path d="M3288 4214 c-131 -20 -246 -49 -355 -90 -105 -39 -271 -119 -334
-161 l-39 -26 0 -430 0 -431 -37 36 c-21 20 -51 42 -66 47 -122 46 -242 -74
-196 -196 12 -32 191 -218 231 -239 15 -8 36 -14 48 -14 19 0 20 -5 20 -150
l0 -150 -1275 0 -1275 0 1 -52 c0 -29 6 -96 12 -148 l12 -95 438 -3 437 -2 0
-237 c0 -216 2 -240 20 -278 54 -111 216 -111 270 0 18 38 20 62 20 278 l0
237 220 0 220 0 0 -87 c0 -139 43 -203 144 -211 41 -3 57 1 85 20 65 44 76 69
79 179 l4 99 219 0 219 0 0 -247 c0 -230 2 -250 20 -281 23 -37 75 -72 108
-72 l22 0 0 -755 0 -755 73 5 c39 2 114 7 165 10 500 27 1024 226 1412 535
112 89 307 291 396 410 265 353 439 801 495 1275 17 150 15 478 -5 610 -57
376 -203 673 -456 925 -209 210 -435 337 -724 410 -197 49 -444 63 -628 34z"/>
</g>
</svg>
